<svg height="512pt" viewBox="-52 0 512 512.0002" width="512pt" xmlns="http://www.w3.org/2000/svg" xmlns:xlink="http://www.w3.org/1999/xlink"><linearGradient id="a" gradientTransform="matrix(.380665 0 0 -.380665 -51.491921 502.456735)" gradientUnits="userSpaceOnUse" x1="305.139" x2="1062.4432" y1="167.6846" y2="924.9888"><stop offset="0" stop-color="#41dfd0"/><stop offset="1" stop-color="#ee83ef"/></linearGradient><path d="m206.933594 4.949219c-2.316406-4.484375-7.828125-6.246094-12.316406-3.929688-1.832032.945313-3.289063 2.480469-4.136719 4.359375l-61.605469 137.792969-37.230469-68.554687c-1.578125-3.019532-4.742187-4.875-8.152343-4.78125-3.398438.050781-6.488282 1.980468-8.023438 5.011718l-66.1875 130.414063c-21.3125 41.828125-4.679688 93.015625 37.152344 114.328125 1.796875.917968 3.628906 1.769531 5.488281 2.558594-17.910156 75.324218 22.824219 152.253906 95.199219 179.769531 33.289062 12.644531 69.917968 13.417969 103.714844 2.195312l10.050781-3.363281c80.847656-26.929688 124.554687-114.296875 97.628906-195.140625-2.449219-7.347656-5.445313-14.5-8.964844-21.394531zm-149.609375 299.65625c-33.582031-15.425781-48.300781-55.160157-32.871094-88.742188.359375-.78125.734375-1.5625 1.125-2.332031l58.316406-114.929688 35.582031 65.589844-58.351562 130.589844c-1.441406 3.234375-2.59375 6.535156-3.800781 9.824219zm280.671875 101.285156c-14.996094 36.6875-45.261719 65-82.867188 77.519531l-10.054687 3.351563c-29.800781 9.910156-62.109375 9.222656-91.464844-1.945313-70.191406-26.726562-105.425781-105.289062-78.699219-175.476562.910156-2.394532 1.890625-4.761719 2.933594-7.101563l121.566406-271.960937 133.90625 262.246094c18.019532 35.296874 19.730469 76.703124 4.679688 113.367187zm-11.242188-67.683594c-.144531 47.164063-26.835937 90.230469-69.011718 111.347657-4.488282 2.300781-10 .527343-12.300782-3.960938-2.304687-4.492188-.53125-10.003906 3.960938-12.304688.039062-.019531.078125-.042968.117187-.058593 36.027344-18.039063 58.832031-54.832031 58.953125-95.125.03125-5.027344 4.113282-9.085938 9.140625-9.085938h.054688c5.042969.03125 9.109375 4.140625 9.085937 9.1875zm36.5625 109.683594h18.277344v18.28125h-18.277344zm45.699219-36.5625v18.28125h-18.28125v-18.28125zm-54.839844 73.121094v18.28125h-18.28125v-18.28125zm0 0" fill="url(#a)"/></svg>