<?xml version="1.0"?>
<svg xmlns="http://www.w3.org/2000/svg" xmlns:xlink="http://www.w3.org/1999/xlink" xmlns:svgjs="http://svgjs.com/svgjs" version="1.1" width="512" height="512" x="0" y="0" viewBox="0 0 438 438" style="enable-background:new 0 0 512 512" xml:space="preserve" class=""><g><linearGradient xmlns="http://www.w3.org/2000/svg" id="linear0" gradientUnits="userSpaceOnUse" x1="119.712" x2="326.316" y1="18.656" y2="376.504"><stop stop-opacity="1" stop-color="#8a01fe" offset="0"/><stop stop-opacity="1" stop-color="#ac118d" offset="1"/></linearGradient><path xmlns="http://www.w3.org/2000/svg" d="m121 109.382812c6.039062-4.214843 12.34375-8.035156 18.871094-11.441406 3.394531-1.59375 7.445312-.226562 9.179687 3.097656 1.734375 3.324219.542969 7.425782-2.707031 9.300782-5.992188 3.128906-11.773438 6.636718-17.316406 10.507812-2.046875 1.527344-4.765625 1.820313-7.089844.761719-2.324219-1.0625-3.890625-3.304687-4.078125-5.851563-.1875-2.550781 1.023437-5 3.167969-6.390624zm46.21875-8.050781c46.953125-16.304687 98.847656-9.480469 139.992188 18.40625 41.140624 27.890625 66.695312 73.570313 68.9375 123.222657h-16.160157c-3.867187 0-7 3.132812-7 7 0 3.863281 3.132813 7 7 7h71.011719c3.867188 0 7-3.136719 7-7 0-3.867188-3.132812-7-7-7h-40.835938c-2.242187-54.191407-29.996093-104.121094-74.835937-134.632813-44.835937-30.515625-101.46875-38.011719-152.699219-20.214844-3.652344 1.269531-5.582031 5.261719-4.3125 8.914063 1.273438 3.648437 5.265625 5.578125 8.914063 4.308594zm137.496094 52.921875c-23.550782-21.125-54.078125-32.796875-85.714844-32.773437-3.867188 0-7 3.132812-7 7 0 3.867187 3.132812 7 7 7 28.1875-.019531 55.386719 10.378906 76.371094 29.199219 2.886718 2.523437 7.261718 2.257812 9.820312-.597657 2.558594-2.851562 2.347656-7.234375-.476562-9.824219zm15.65625 16.757813c-2.390625-3-6.753906-3.519531-9.777344-1.160157-3.027344 2.359376-3.589844 6.71875-1.261719 9.769532 3.242188 4.15625 6.195313 8.53125 8.835938 13.09375 1.234375 2.203125 3.558593 3.566406 6.082031 3.574218 2.523438.007813 4.855469-1.339843 6.105469-3.53125 1.246093-2.191406 1.222656-4.886718-.070313-7.054687-2.964844-5.117187-6.277344-10.023437-9.914062-14.6875zm-313.371094 85.949219h285.9375c3.863281 0 7-3.136719 7-7 0-3.867188-3.136719-7-7-7h-231.09375c1.890625-41.410157 19.996094-80.417969 50.398438-108.59375 2.753906-2.640626 2.882812-7 .292968-9.800782-2.585937-2.800781-6.941406-3.011718-9.792968-.476562-33.265626 30.828125-52.996094 73.554687-54.898438 118.871094h-40.84375c-3.867188 0-7 3.132812-7 7 0 3.863281 3.132812 7 7 7zm327.851562-14h-17.257812c-3.867188 0-7 3.132812-7 7 0 3.863281 3.132812 7 7 7h17.253906c3.867188 0 7-3.136719 7-7 0-3.867188-3.132812-7-7-7zm-136.15625 58.898437h-108.863281c-3.867187 0-7-3.132813-7-7s3.132813-7 7-7h170.59375c3.863281 0 7 3.132813 7 7s-3.136719 7-7 7h-21.121093v14.609375h16.75c2.832031 0 5.382812 1.707031 6.464843 4.324219 1.082031 2.617187.484375 5.625-1.519531 7.628906l-37.054688 37.050781c-1.3125 1.3125-3.09375 2.050782-4.953124 2.050782-1.855469 0-3.636719-.738282-4.949219-2.050782l-37.042969-37.050781c-2-2.003906-2.597656-5.011719-1.515625-7.628906 1.082031-2.613281 3.632813-4.320313 6.464844-4.320313h16.75zm14 0v21.601563c0 3.863281-3.132812 7-7 7h-6.847656l20.152344 20.164062 20.15625-20.15625h-6.851562c-3.867188 0-7-3.132812-7-7v-21.601562zm-129.132812 30.902344c-3.863281 0-7 3.132812-7 7 0 3.863281 3.136719 7 7 7h13.9375c3.867188 0 7-3.136719 7-7 0-3.867188-3.132812-7-7-7zm84.605469 7c0-3.867188-3.132813-7-7-7h-39.414063c-3.867187 0-7 3.132812-7 7 0 3.863281 3.132813 7 7 7h39.414063c3.867187 0 7-3.136719 7-7zm94 0c0 3.863281 3.132812 7 7 7h85.269531c3.863281 0 7-3.136719 7-7 0-3.867188-3.136719-7-7-7h-85.25c-3.859375.003906-6.988281 3.136719-6.988281 7zm46.398437 42.933593c0-3.867187-3.132812-7-7-7h-114.320312c-3.863282 0-7 3.132813-7 7 0 3.867188 3.136718 7 7 7h114.339844c1.855468.003907 3.640624-.730468 4.957031-2.042968 1.316406-1.3125 2.058593-3.097656 2.058593-4.957032zm-142.828125 0c0-3.867187-3.132812-7-7-7h-22.324219c-3.863281 0-7 3.132813-7 7 0 3.867188 3.136719 7 7 7h22.347657c3.863281 0 7-3.132812 7-7zm167.386719-87.847656c0 3.867188 3.132812 7 7 7h64.984375c3.863281 0 7-3.132812 7-7 0-3.867187-3.136719-7-7-7h-64.984375c-3.867188 0-7 3.132813-7 7zm-50.882812 0c0 3.867188 3.136718 7 7 7h25.601562c3.867188 0 7-3.132812 7-7 0-3.867187-3.132812-7-7-7h-25.601562c-3.863282 0-7 3.132813-7 7zm-249.351563-7c-3.863281 0-7 3.132813-7 7 0 3.867188 3.136719 7 7 7h30.460937c3.867188 0 7-3.132812 7-7 0-3.867187-3.132812-7-7-7zm186.109375-233.910156c3.867188 0 7-3.136719 7-7v-39.9375c0-3.867188-3.132812-7-7-7s-7 3.132812-7 7v39.9375c0 3.863281 3.132812 7 7 7zm-107.574219 23.710938c1.238281 2.183593 3.554688 3.535156 6.066407 3.539062 2.511718.007812 4.835937-1.335938 6.085937-3.511719 1.253906-2.179687 1.242187-4.859375-.03125-7.027343l-19.960937-34.601563c-1.949219-3.320313-6.207032-4.445313-9.539063-2.519531-3.335937 1.921875-4.488281 6.175781-2.585937 9.519531zm-106.335937 56.894531 34.582031 19.96875c3.34375 1.902343 7.597656.746093 9.523437-2.585938 1.921876-3.332031.796876-7.589843-2.523437-9.539062l-34.582031-19.964844c-2.167969-1.273437-4.851563-1.285156-7.027344-.03125-2.179688 1.25-3.519531 3.570313-3.515625 6.082031.007813 2.511719 1.359375 4.828125 3.542969 6.070313zm389.742187 20.910156c1.226563 0 2.429688-.324219 3.492188-.941406l34.582031-19.96875c3.320312-1.945313 4.449219-6.207031 2.523438-9.539063-1.921876-3.332031-6.175782-4.484375-9.523438-2.582031l-34.582031 19.964844c-2.746094 1.585937-4.085938 4.816406-3.265625 7.878906.824218 3.0625 3.601562 5.191406 6.773437 5.1875zm-77.832031-75.253906c1.609375.929687 3.519531 1.183593 5.3125.703125 1.796875-.480469 3.324219-1.65625 4.25-3.265625l19.96875-34.585938c1.902344-3.34375.746094-7.597656-2.585938-9.519531-3.332031-1.925781-7.589843-.796875-9.539062 2.519531l-19.964844 34.585938c-1.9375 3.347656-.789062 7.628906 2.558594 9.5625zm0 0" fill="url(#linear0)" data-original="url(#linear0)" style=""/></g></svg>
