<svg height="512" viewBox="0 0 512 512" width="512" xmlns="http://www.w3.org/2000/svg" xmlns:xlink="http://www.w3.org/1999/xlink"><linearGradient id="linear-gradient" gradientUnits="userSpaceOnUse" x1="113.393" x2="398.607" y1="389.13" y2="103.917"><stop offset="0" stop-color="#41dfd0"/><stop offset="1" stop-color="#ee83ef"/></linearGradient><g id="gradient"><path d="m64.409 339.788a8 8 0 0 0 9.7 3.421l36.848-13.818a47.689 47.689 0 0 1 50.36 10.908l9.872 9.872a8 8 0 0 0 11.313 0 47.538 47.538 0 0 1 63.379-3.511l2.123 1.7v122.05a25.591 25.591 0 0 0 51.182 0v-8.8a8 8 0 0 0 -16 0v8.8a9.591 9.591 0 0 1 -19.182 0v-122.051l2.123-1.7a47.537 47.537 0 0 1 63.379 3.51 8 8 0 0 0 11.313 0l9.872-9.872a47.689 47.689 0 0 1 50.36-10.908l36.849 13.82a8 8 0 0 0 8.015-13.565l-184.7-158.317a8 8 0 0 0 -10.414 0l-184.711 158.317a8 8 0 0 0 -1.681 10.144zm151.746-19.579a63.6 63.6 0 0 0 -24.7 5l56.545-106.803v110.385a63.362 63.362 0 0 0 -31.845-8.582zm47.845 8.582v-110.385l56.541 106.8a63.529 63.529 0 0 0 -56.541 3.585zm76.216-.619-65.956-124.583 127.362 109.167a63.741 63.741 0 0 0 -61.406 15.416zm-102.476-124.583-65.956 124.583a63.739 63.739 0 0 0 -61.406-15.416zm73.492-6.638a69.017 69.017 0 0 0 14.452-42.494 69.684 69.684 0 1 0 -139.368 0 69.017 69.017 0 0 0 14.452 42.494 8 8 0 1 1 -12.673 9.767 84.879 84.879 0 0 1 -17.779-52.261 85.684 85.684 0 1 1 171.368 0 84.879 84.879 0 0 1 -17.784 52.261 8 8 0 1 1 -12.673-9.767zm-55.232-145.53a8 8 0 0 1 -8-8v-19.421a8 8 0 0 1 16 0v19.421a8 8 0 0 1 -8 8zm-71.159 17.72-11.415-15.712a8 8 0 0 1 12.944-9.4l11.415 15.712a8 8 0 1 1 -12.944 9.4zm-25.9 52.8a7.991 7.991 0 0 1 -10.081 5.136l-18.47-6a8 8 0 1 1 4.944-15.217l18.471 6a8 8 0 0 1 5.138 10.077zm0 63.072a8 8 0 0 1 -5.136 10.08l-18.471 6a8 8 0 1 1 -4.944-15.217l18.47-6a8 8 0 0 1 10.083 5.133zm227.8 10.946a8 8 0 0 1 -10.081 5.136l-18.471-6a8 8 0 1 1 4.945-15.216l18.47 6a8 8 0 0 1 5.141 10.076zm-5.137-74.883-18.47 6a8 8 0 1 1 -4.945-15.217l18.471-6a8 8 0 1 1 4.944 15.217zm-65.619-50.165a8 8 0 0 1 -1.77-11.174l11.415-15.712a8 8 0 1 1 12.944 9.4l-11.415 15.716a8 8 0 0 1 -11.174 1.77z" fill="url(#linear-gradient)"/></g></svg>