<svg height="449pt" viewBox="0 -59 449.25 449" width="449pt" xmlns="http://www.w3.org/2000/svg" xmlns:xlink="http://www.w3.org/1999/xlink"><linearGradient id="a"><stop offset=".322" stop-color="#a163f5"/><stop offset=".466" stop-color="#b074ee"/><stop offset=".752" stop-color="#d8a1dd"/><stop offset=".898" stop-color="#efbad3"/></linearGradient><linearGradient id="b" gradientUnits="userSpaceOnUse" x1="185.8963" x2="185.8963" xlink:href="#a" y1="406.3" y2="-73.2081"/><linearGradient id="c" gradientUnits="userSpaceOnUse" x1="132.5486" x2="132.5486" xlink:href="#a" y1="406.3" y2="-73.2081"/><linearGradient id="d" gradientUnits="userSpaceOnUse" x1="207.2376" x2="207.2376" xlink:href="#a" y1="406.3" y2="-73.2081"/><linearGradient id="e" gradientUnits="userSpaceOnUse" x1="248.7788" x2="248.7788" xlink:href="#a" y1="406.3" y2="-73.2081"/><path d="m313.699219 184.5h-313.699219v20h313.601562c10.898438 0 21.398438 4.398438 29.097657 12.101562 12.199219 12.199219 12.199219 31.898438 0 44.097657-9 8.902343-23.5 8.902343-32.398438 0-6.402343-6.398438-6.402343-16.699219 0-23.097657l-14.101562-14.101562c-14.199219 14.199219-14.199219 37.199219 0 51.398438 16.800781 16.703124 43.902343 16.703124 60.699219 0 19.902343-20 19.902343-52.398438 0-72.398438-11.5-11.5-27-18-43.199219-18zm0 0" fill="url(#b)"/><path d="m156.898438 244.601562h-96.898438v20h96.898438c8.101562 0 15.902343 3.296876 21.601562 9 8.800781 8.898438 8.800781 23.199219 0 32.097657-6.300781 6.300781-16.5 6.300781-22.800781 0-4.300781-4.300781-4.300781-11.199219 0-15.398438l-14.097657-14.101562c-12.101562 12.101562-12.101562 31.601562 0 43.699219 14.097657 14.101562 37 14.101562 51.097657 0 16.601562-16.699219 16.601562-43.699219 0-60.398438-9.5-9.5-22.398438-14.898438-35.800781-14.898438zm0 0" fill="url(#c)"/><path d="m298 71.101562c16.601562-16.703124 16.601562-43.703124 0-60.402343-14.101562-14.097657-37-14.097657-51.101562 0-12.097657 12.101562-12.097657 31.601562 0 43.699219l14.101562-14.097657c-4.300781-4.300781-4.300781-11.199219 0-15.402343 6.300781-6.296876 16.5-6.296876 22.800781 0 8.800781 8.902343 8.800781 23.203124 0 32.101562-5.699219 5.699219-13.5 9-21.601562 9h-158.199219v20h158.398438c13.300781 0 26.203124-5.398438 35.601562-14.898438zm0 0" fill="url(#d)"/><path d="m368.300781 48.300781c-15.101562 15.097657-15.101562 39.597657 0 54.699219l14.097657-14.101562c-7.296876-7.296876-7.296876-19.097657 0-26.398438 10.101562-10.101562 26.5-10.101562 36.601562 0 13.601562 13.601562 13.601562 35.601562 0 49.199219-8.5 8.601562-20.101562 13.402343-32.199219 13.5h-338.402343v20h338.5c17.402343-.097657 34-7 46.300781-19.300781 21.402343-21.398438 21.402343-56.097657 0-77.5-18-18-47-18-64.898438-.097657zm0 0" fill="url(#e)"/></svg>